<svg width="41" height="544" viewBox="0 0 41 544" fill="none" xmlns="http://www.w3.org/2000/svg">
<path d="M18.2175 16.1068L15.0287 12.9181L13.9658 13.981L18.2175 18.2326L27.3281 9.12199L26.2652 8.05908L18.2175 16.1068Z" fill="white"/>
<path d="M18.2652 59.8043C17.8743 60.1969 17.2388 60.1969 16.8479 59.8043L14.1788 57.1235C13.8042 56.7473 13.1951 56.7473 12.8206 57.1235V57.1235C12.4484 57.4974 12.4484 58.1018 12.8206 58.4757L16.8479 62.5207C17.2388 62.9133 17.8743 62.9133 18.2652 62.5207L28.4743 52.2669C28.8465 51.893 28.8465 51.2885 28.4743 50.9146V50.9146C28.0997 50.5383 27.4906 50.5383 27.116 50.9145L18.2652 59.8043Z" fill="#363636"/>
<path d="M21.71 148.67L27.0225 143.357" stroke="#8F6C2C" stroke-width="2" stroke-linecap="round" stroke-linejoin="round"/>
<path d="M23.4805 143.357H27.0221V146.899" stroke="#8F6C2C" stroke-width="2" stroke-linecap="round" stroke-linejoin="round"/>
<path d="M27.0225 151.149V154.691C27.0225 155.067 26.8732 155.427 26.6075 155.693C26.3419 155.958 25.9815 156.107 25.6058 156.107H15.6891C15.3134 156.107 14.9531 155.958 14.6874 155.693C14.4217 155.427 14.2725 155.067 14.2725 154.691V144.774C14.2725 144.398 14.4217 144.038 14.6874 143.772C14.9531 143.507 15.3134 143.357 15.6891 143.357H19.2308" stroke="#8F6C2C" stroke-width="2" stroke-linecap="round" stroke-linejoin="round"/>
<path d="M27.6475 359.309L26.2375 357.899L20.6475 363.489L15.0575 357.899L13.6475 359.309L19.2375 364.899L13.6475 370.489L15.0575 371.899L20.6475 366.309L26.2375 371.899L27.6475 370.489L22.0575 364.899L27.6475 359.309Z" fill="white"/>
<path d="M29 94L13 110" stroke="black" stroke-width="2" stroke-linecap="square" stroke-linejoin="round"/>
<path d="M13 94L29 110" stroke="black" stroke-width="2" stroke-linecap="square" stroke-linejoin="round"/>
<path fill-rule="evenodd" clip-rule="evenodd" d="M20.5146 184C19.9624 184 19.5146 184.448 19.5146 185V198.514H6C5.44772 198.514 5 198.962 5 199.514V200.486C5 201.038 5.44772 201.486 6 201.486H19.5146V215C19.5146 215.552 19.9624 216 20.5146 216H21.4861C22.0384 216 22.4861 215.552 22.4861 215V201.486H36C36.5523 201.486 37 201.038 37 200.486V199.514C37 198.962 36.5523 198.514 36 198.514H22.4861V185C22.4861 184.448 22.0384 184 21.4861 184H20.5146Z" fill="#363636"/>
<path d="M16 303L23.623 309.407C23.8173 309.571 23.8123 309.871 23.6125 310.028L16 316" stroke="#363636" stroke-width="1.8" stroke-linecap="round"/>
<path d="M18 258L23 253L18 248" stroke="#363636" stroke-width="1.5"/>
<rect x="12" y="463" width="16" height="2" fill="#363636"/>
<path fill-rule="evenodd" clip-rule="evenodd" d="M19 414V421H21V414H28V412H21V405H19V412H12V414H19Z" fill="black"/>
<path d="M16 507L19.821 511.546C19.9844 511.74 20.2852 511.735 20.4419 511.536L24 507" stroke="#363636" stroke-linecap="round"/>
</svg>
